<svg xmlns="http://www.w3.org/2000/svg" viewBox="0 0 960 1200" role="img" aria-labelledby="title desc">
  <title id="title">Illustrated fridge shelves</title>
  <desc id="desc">A warm illustrated fridge with simple ingredient shapes on shelves.</desc>
  <defs>
    <linearGradient id="paper" x1="0" x2="0" y1="0" y2="1">
      <stop offset="0" stop-color="#FFFDF9"/>
      <stop offset="1" stop-color="#F7EFE2"/>
    </linearGradient>
    <filter id="soft" x="-20%" y="-20%" width="140%" height="140%">
      <feDropShadow dx="18" dy="18" stdDeviation="0" flood-color="#1E1B16" flood-opacity="1"/>
      <feDropShadow dx="0" dy="20" stdDeviation="18" flood-color="#1E1B16" flood-opacity=".14"/>
    </filter>
  </defs>
  <rect width="960" height="1200" fill="#FBF6EE"/>
  <g filter="url(#soft)">
    <rect x="136" y="98" width="688" height="1004" rx="84" fill="url(#paper)" stroke="#1E1B16" stroke-width="8"/>
    <path d="M210 376h548M210 660h548M210 896h548" stroke="#1E1B16" stroke-opacity=".14" stroke-width="7" stroke-linecap="round"/>
    <rect x="754" y="170" width="10" height="825" rx="5" fill="#1E1B16" opacity=".16"/>
    <rect x="728" y="216" width="10" height="360" rx="5" fill="#1E1B16" opacity=".09"/>
  </g>
  <g>
    <rect x="238" y="210" width="132" height="104" rx="18" fill="#E8542E"/>
    <rect x="400" y="220" width="116" height="92" rx="18" fill="#2E9E5E"/>
    <circle cx="292" cy="445" r="48" fill="#E5A823"/>
    <rect x="380" y="405" width="160" height="86" rx="18" fill="#FBE9E2" stroke="#1E1B16" stroke-width="4"/>
    <rect x="250" y="520" width="72" height="200" rx="18" fill="#2E9E5E"/>
    <rect x="382" y="564" width="126" height="156" rx="20" fill="#E8542E"/>
    <rect x="576" y="536" width="112" height="184" rx="20" fill="#E5A823"/>
    <rect x="250" y="766" width="210" height="96" rx="24" fill="#E3F3E8" stroke="#2E9E5E" stroke-width="5"/>
    <rect x="506" y="760" width="184" height="108" rx="24" fill="#F6A98F"/>
    <rect x="288" y="954" width="342" height="82" rx="28" fill="#FBF1DD" stroke="#C98A13" stroke-width="5"/>
  </g>
</svg>
